<?xml version="1.0" standalone="no"?>
<!DOCTYPE svg PUBLIC "-//W3C//DTD SVG 20010904//EN"
 "http://www.w3.org/TR/2001/REC-SVG-20010904/DTD/svg10.dtd">
<svg version="1.0" xmlns="http://www.w3.org/2000/svg"
 width="512.000000pt" height="512.000000pt" viewBox="0 0 512.000000 512.000000"
 preserveAspectRatio="xMidYMid meet">
<metadata>
Created by potrace 1.16, written by Peter Selinger 2001-2019
</metadata>
<g transform="translate(0.000000,512.000000) scale(0.100000,-0.100000)"
fill="#000000" stroke="none">
<path d="M4865 5042 c-35 -17 -86 -54 -120 -88 -65 -63 -331 -385 -328 -395 3
-9 -543 -666 -594 -714 -22 -22 -326 -384 -673 -805 -348 -421 -640 -773 -649
-783 -16 -16 -36 5 -356 379 -187 218 -360 414 -384 435 -213 188 -552 119
-679 -140 -36 -75 -37 -78 -37 -191 1 -102 4 -121 26 -170 14 -30 43 -77 63
-103 49 -64 1044 -1224 1082 -1260 16 -16 47 -40 70 -53 203 -119 455 -68 588
119 75 107 1286 1995 1286 2006 0 15 628 991 650 1010 30 27 228 343 267 427
44 95 57 212 30 276 -34 81 -133 101 -242 50z"/>
</g>
</svg>
